# xmcd CD database file
#
# Track frame offsets:
#	150
#	26574
#	42955
#	88807
#	116657
#
# Disc length: 2233 seconds
#
# Revision: 0
# Processed by: cddbd v1.5.2PL0 Copyright (c) Steve Scherf et al.
# Submitted via: CDex 1.70beta2
#
DISCID=3a08b705
DTITLE=The Bobby Hamilton Quintet Unlimited - Dream Queen
DYEAR=2009
DGENRE=Jazz
TTITLE0=Pearl (Among The Swine)
TTITLE1=Priscilla
TTITLE2=In The Mouth Of The Beast
TTITLE3=Roll Your Own
TTITLE4=Dream Queen
EXTD=YEAR: 2009
EXTT0=
EXTT1=
EXTT2=
EXTT3=
EXTT4=
PLAYORDER=
